<mxfile host="app.diagrams.net" agent="Mozilla/5.0 (Windows NT 10.0; Win64; x64) AppleWebKit/537.36 (KHTML, like Gecko) Chrome/134.0.0.0 Safari/537.36" version="28.2.7">
  <diagram name="Page-1" id="rsfOc3dTo4bxU6fTNk44">
    <mxGraphModel dx="1094" dy="556" grid="1" gridSize="10" guides="1" tooltips="1" connect="1" arrows="1" fold="1" page="1" pageScale="1" pageWidth="850" pageHeight="1100" math="0" shadow="0">
      <root>
        <mxCell id="0" />
        <mxCell id="1" parent="0" />
        <mxCell id="p_ZH1-xyBiG3-VuiRUjO-2" value="" style="html=1;points=[];perimeter=orthogonalPerimeter;outlineConnect=0;targetShapes=umlLifeline;portConstraint=eastwest;newEdgeStyle={&quot;edgeStyle&quot;:&quot;elbowEdgeStyle&quot;,&quot;elbow&quot;:&quot;vertical&quot;,&quot;curved&quot;:0,&quot;rounded&quot;:0};" vertex="1" parent="1">
          <mxGeometry x="595" y="190" width="10" height="40" as="geometry" />
        </mxCell>
        <mxCell id="p_ZH1-xyBiG3-VuiRUjO-3" value="2.业务系统自身清除登录态" style="html=1;align=left;spacingLeft=2;endArrow=block;rounded=0;edgeStyle=orthogonalEdgeStyle;curved=0;rounded=0;" edge="1" parent="1">
          <mxGeometry x="0.0118" relative="1" as="geometry">
            <mxPoint x="607" y="196" as="sourcePoint" />
            <Array as="points">
              <mxPoint x="637" y="196" />
              <mxPoint x="637" y="220" />
              <mxPoint x="612" y="220" />
            </Array>
            <mxPoint x="612" y="226" as="targetPoint" />
            <mxPoint as="offset" />
          </mxGeometry>
        </mxCell>
        <mxCell id="p_ZH1-xyBiG3-VuiRUjO-4" value="1.点击退出按钮" style="html=1;verticalAlign=bottom;endArrow=block;edgeStyle=elbowEdgeStyle;elbow=horizontal;curved=0;rounded=0;" edge="1" parent="1" target="p_ZH1-xyBiG3-VuiRUjO-2">
          <mxGeometry x="0.0044" relative="1" as="geometry">
            <mxPoint x="370" y="190" as="sourcePoint" />
            <Array as="points">
              <mxPoint x="455" y="190" />
            </Array>
            <mxPoint as="offset" />
          </mxGeometry>
        </mxCell>
        <mxCell id="p_ZH1-xyBiG3-VuiRUjO-5" value="&lt;div style=&quot;text-align: center;&quot;&gt;&lt;span style=&quot;font-size: 11px; white-space: nowrap; background-color: rgb(255, 255, 255);&quot;&gt;3.重定向到登出地址&lt;/span&gt;&lt;/div&gt;" style="text;whiteSpace=wrap;html=1;" vertex="1" parent="1">
          <mxGeometry x="445" y="229" width="120" height="21" as="geometry" />
        </mxCell>
        <mxCell id="p_ZH1-xyBiG3-VuiRUjO-6" value="4.用户中心清除登录态" style="html=1;align=left;spacingLeft=2;endArrow=block;rounded=0;edgeStyle=orthogonalEdgeStyle;curved=0;rounded=0;" edge="1" parent="1">
          <mxGeometry x="0.0118" relative="1" as="geometry">
            <mxPoint x="791" y="263" as="sourcePoint" />
            <Array as="points">
              <mxPoint x="821" y="263" />
              <mxPoint x="821" y="287" />
              <mxPoint x="796" y="287" />
            </Array>
            <mxPoint x="796" y="293" as="targetPoint" />
            <mxPoint as="offset" />
          </mxGeometry>
        </mxCell>
        <mxCell id="p_ZH1-xyBiG3-VuiRUjO-8" value="业务系统" style="shape=umlLifeline;perimeter=lifelinePerimeter;whiteSpace=wrap;html=1;container=0;dropTarget=0;collapsible=0;recursiveResize=0;outlineConnect=0;portConstraint=eastwest;newEdgeStyle={&quot;edgeStyle&quot;:&quot;elbowEdgeStyle&quot;,&quot;elbow&quot;:&quot;vertical&quot;,&quot;curved&quot;:0,&quot;rounded&quot;:0};fillColor=#ffe6cc;strokeColor=#d79b00;" vertex="1" parent="1">
          <mxGeometry x="549" y="110" width="100" height="430" as="geometry" />
        </mxCell>
        <mxCell id="p_ZH1-xyBiG3-VuiRUjO-9" value="" style="html=1;points=[];perimeter=orthogonalPerimeter;outlineConnect=0;targetShapes=umlLifeline;portConstraint=eastwest;newEdgeStyle={&quot;edgeStyle&quot;:&quot;elbowEdgeStyle&quot;,&quot;elbow&quot;:&quot;vertical&quot;,&quot;curved&quot;:0,&quot;rounded&quot;:0};" vertex="1" parent="p_ZH1-xyBiG3-VuiRUjO-8">
          <mxGeometry x="45" y="80" width="10" height="40" as="geometry" />
        </mxCell>
        <mxCell id="p_ZH1-xyBiG3-VuiRUjO-10" value="" style="html=1;align=left;spacingLeft=2;endArrow=block;rounded=0;edgeStyle=orthogonalEdgeStyle;curved=0;rounded=0;" edge="1" parent="p_ZH1-xyBiG3-VuiRUjO-8">
          <mxGeometry relative="1" as="geometry">
            <mxPoint x="57" y="86" as="sourcePoint" />
            <Array as="points">
              <mxPoint x="87" y="86" />
              <mxPoint x="87" y="110" />
              <mxPoint x="62" y="110" />
            </Array>
            <mxPoint x="62" y="116" as="targetPoint" />
          </mxGeometry>
        </mxCell>
        <mxCell id="p_ZH1-xyBiG3-VuiRUjO-11" value="" style="html=1;verticalAlign=bottom;endArrow=block;edgeStyle=elbowEdgeStyle;elbow=horizontal;curved=0;rounded=0;" edge="1" parent="1" target="p_ZH1-xyBiG3-VuiRUjO-9">
          <mxGeometry relative="1" as="geometry">
            <mxPoint x="370" y="190" as="sourcePoint" />
            <Array as="points">
              <mxPoint x="455" y="190" />
            </Array>
            <mxPoint as="offset" />
          </mxGeometry>
        </mxCell>
        <mxCell id="p_ZH1-xyBiG3-VuiRUjO-12" value="用户权限组件服务" style="shape=umlLifeline;perimeter=lifelinePerimeter;whiteSpace=wrap;html=1;container=0;dropTarget=0;collapsible=0;recursiveResize=0;outlineConnect=0;portConstraint=eastwest;newEdgeStyle={&quot;edgeStyle&quot;:&quot;elbowEdgeStyle&quot;,&quot;elbow&quot;:&quot;vertical&quot;,&quot;curved&quot;:0,&quot;rounded&quot;:0};fillColor=#ffe6cc;strokeColor=#d79b00;" vertex="1" parent="1">
          <mxGeometry x="734" y="110" width="100" height="430" as="geometry" />
        </mxCell>
        <mxCell id="p_ZH1-xyBiG3-VuiRUjO-13" value="" style="html=1;points=[];perimeter=orthogonalPerimeter;outlineConnect=0;targetShapes=umlLifeline;portConstraint=eastwest;newEdgeStyle={&quot;edgeStyle&quot;:&quot;elbowEdgeStyle&quot;,&quot;elbow&quot;:&quot;vertical&quot;,&quot;curved&quot;:0,&quot;rounded&quot;:0};" vertex="1" parent="p_ZH1-xyBiG3-VuiRUjO-12">
          <mxGeometry x="44" y="130" width="10" height="152" as="geometry" />
        </mxCell>
        <mxCell id="p_ZH1-xyBiG3-VuiRUjO-14" value="" style="html=1;verticalAlign=bottom;endArrow=block;edgeStyle=elbowEdgeStyle;elbow=horizontal;curved=0;rounded=0;" edge="1" parent="1">
          <mxGeometry x="0.1111" y="-60" relative="1" as="geometry">
            <mxPoint x="370" y="250" as="sourcePoint" />
            <Array as="points">
              <mxPoint x="455" y="250" />
            </Array>
            <mxPoint x="779" y="250" as="targetPoint" />
            <mxPoint as="offset" />
          </mxGeometry>
        </mxCell>
        <mxCell id="p_ZH1-xyBiG3-VuiRUjO-15" value="5.重定向业务系统指定地址(用户中心配置)" style="html=1;verticalAlign=bottom;endArrow=open;dashed=1;endSize=8;edgeStyle=elbowEdgeStyle;elbow=vertical;curved=0;rounded=0;" edge="1" parent="1">
          <mxGeometry x="-1" y="-21" relative="1" as="geometry">
            <mxPoint x="601" y="393" as="targetPoint" />
            <Array as="points" />
            <mxPoint x="601" y="392.83333333333337" as="sourcePoint" />
            <mxPoint x="-15" y="-15" as="offset" />
          </mxGeometry>
        </mxCell>
        <mxCell id="p_ZH1-xyBiG3-VuiRUjO-16" value="" style="html=1;verticalAlign=bottom;endArrow=open;dashed=1;endSize=8;edgeStyle=elbowEdgeStyle;elbow=vertical;curved=0;rounded=0;" edge="1" parent="1">
          <mxGeometry x="-0.0015" relative="1" as="geometry">
            <mxPoint x="364.5" y="383" as="targetPoint" />
            <Array as="points" />
            <mxPoint x="779" y="383" as="sourcePoint" />
            <mxPoint as="offset" />
          </mxGeometry>
        </mxCell>
        <mxCell id="p_ZH1-xyBiG3-VuiRUjO-24" value="用户浏览器" style="shape=umlLifeline;perimeter=lifelinePerimeter;whiteSpace=wrap;html=1;container=0;dropTarget=0;collapsible=0;recursiveResize=0;outlineConnect=0;portConstraint=eastwest;newEdgeStyle={&quot;edgeStyle&quot;:&quot;elbowEdgeStyle&quot;,&quot;elbow&quot;:&quot;vertical&quot;,&quot;curved&quot;:0,&quot;rounded&quot;:0};fillColor=#ffe6cc;strokeColor=#d79b00;" vertex="1" parent="1">
          <mxGeometry x="310" y="110" width="100" height="430" as="geometry" />
        </mxCell>
        <mxCell id="p_ZH1-xyBiG3-VuiRUjO-25" value="" style="html=1;points=[];perimeter=orthogonalPerimeter;outlineConnect=0;targetShapes=umlLifeline;portConstraint=eastwest;newEdgeStyle={&quot;edgeStyle&quot;:&quot;elbowEdgeStyle&quot;,&quot;elbow&quot;:&quot;vertical&quot;,&quot;curved&quot;:0,&quot;rounded&quot;:0};" vertex="1" parent="p_ZH1-xyBiG3-VuiRUjO-24">
          <mxGeometry x="45" y="60" width="10" height="240" as="geometry" />
        </mxCell>
      </root>
    </mxGraphModel>
  </diagram>
</mxfile>
